solid OpenSCAD_Model
  facet normal -1 0 0
    outer loop
      vertex -2.25625 -1.375 1.725
      vertex -2.25625 1.375 1.975
      vertex -2.25625 1.375 1.725
    endloop
  endfacet
  facet normal -1 -0 0
    outer loop
      vertex -2.25625 1.375 1.975
      vertex -2.25625 -1.375 1.725
      vertex -2.25625 -1.375 1.975
    endloop
  endfacet
  facet normal 0 0 1
    outer loop
      vertex 2.25625 1.375 1.975
      vertex 2.00625 1.125 1.975
      vertex 2.25625 -1.375 1.975
    endloop
  endfacet
  facet normal 0 0 1
    outer loop
      vertex 2.25625 1.375 1.975
      vertex -2.00625 1.125 1.975
      vertex 2.00625 1.125 1.975
    endloop
  endfacet
  facet normal 0 0 1
    outer loop
      vertex -2.00625 1.125 1.975
      vertex -2.25625 1.375 1.975
      vertex -2.00625 -1.125 1.975
    endloop
  endfacet
  facet normal -0 0 1
    outer loop
      vertex -2.25625 1.375 1.975
      vertex -2.00625 1.125 1.975
      vertex 2.25625 1.375 1.975
    endloop
  endfacet
  facet normal -0 0 1
    outer loop
      vertex 2.00625 -1.125 1.975
      vertex 2.25625 -1.375 1.975
      vertex 2.00625 1.125 1.975
    endloop
  endfacet
  facet normal -0 0 1
    outer loop
      vertex -2.00625 -1.125 1.975
      vertex 2.25625 -1.375 1.975
      vertex 2.00625 -1.125 1.975
    endloop
  endfacet
  facet normal 0 0 1
    outer loop
      vertex -2.00625 -1.125 1.975
      vertex -2.25625 -1.375 1.975
      vertex 2.25625 -1.375 1.975
    endloop
  endfacet
  facet normal 0 0 1
    outer loop
      vertex -2.25625 -1.375 1.975
      vertex -2.00625 -1.125 1.975
      vertex -2.25625 1.375 1.975
    endloop
  endfacet
  facet normal 1 -0 0
    outer loop
      vertex 2.25625 -1.375 1.975
      vertex 2.25625 1.375 1.725
      vertex 2.25625 1.375 1.975
    endloop
  endfacet
  facet normal 1 0 0
    outer loop
      vertex 2.25625 1.375 1.725
      vertex 2.25625 -1.375 1.975
      vertex 2.25625 -1.375 1.725
    endloop
  endfacet
  facet normal 0 1 -0
    outer loop
      vertex 2.25625 1.375 1.725
      vertex -2.25625 1.375 1.975
      vertex 2.25625 1.375 1.975
    endloop
  endfacet
  facet normal 0 1 0
    outer loop
      vertex -2.25625 1.375 1.975
      vertex 2.25625 1.375 1.725
      vertex -2.25625 1.375 1.725
    endloop
  endfacet
  facet normal 0 0 -1
    outer loop
      vertex 2.25625 -1.375 1.725
      vertex 2.14687 -1.26562 1.725
      vertex 2.25625 1.375 1.725
    endloop
  endfacet
  facet normal 0 0 -1
    outer loop
      vertex 2.25625 -1.375 1.725
      vertex -2.14687 -1.26562 1.725
      vertex 2.14687 -1.26562 1.725
    endloop
  endfacet
  facet normal -0 0 -1
    outer loop
      vertex -2.14687 -1.26562 1.725
      vertex -2.25625 -1.375 1.725
      vertex -2.14687 1.26562 1.725
    endloop
  endfacet
  facet normal 0 0 -1
    outer loop
      vertex -2.25625 -1.375 1.725
      vertex -2.14687 -1.26562 1.725
      vertex 2.25625 -1.375 1.725
    endloop
  endfacet
  facet normal 0 0 -1
    outer loop
      vertex 2.14687 1.26562 1.725
      vertex 2.25625 1.375 1.725
      vertex 2.14687 -1.26562 1.725
    endloop
  endfacet
  facet normal 0 0 -1
    outer loop
      vertex -2.14687 1.26562 1.725
      vertex 2.25625 1.375 1.725
      vertex 2.14687 1.26562 1.725
    endloop
  endfacet
  facet normal 0 0 -1
    outer loop
      vertex -2.14687 1.26562 1.725
      vertex -2.25625 1.375 1.725
      vertex 2.25625 1.375 1.725
    endloop
  endfacet
  facet normal 0 0 -1
    outer loop
      vertex -2.25625 1.375 1.725
      vertex -2.14687 1.26562 1.725
      vertex -2.25625 -1.375 1.725
    endloop
  endfacet
  facet normal 0 -1 0
    outer loop
      vertex -2.25625 -1.375 1.725
      vertex 2.25625 -1.375 1.975
      vertex -2.25625 -1.375 1.975
    endloop
  endfacet
  facet normal 0 -1 -0
    outer loop
      vertex 2.25625 -1.375 1.975
      vertex -2.25625 -1.375 1.725
      vertex 2.25625 -1.375 1.725
    endloop
  endfacet
  facet normal 1 -0 0
    outer loop
      vertex -2.14687 -1.26562 1.85
      vertex -2.14687 1.26562 1.725
      vertex -2.14687 1.26562 1.85
    endloop
  endfacet
  facet normal 1 0 0
    outer loop
      vertex -2.14687 1.26562 1.725
      vertex -2.14687 -1.26562 1.85
      vertex -2.14687 -1.26562 1.725
    endloop
  endfacet
  facet normal 0 0 -1
    outer loop
      vertex 2.14687 -1.26562 1.85
      vertex 2.00625 -1.125 1.85
      vertex 2.14687 1.26562 1.85
    endloop
  endfacet
  facet normal 0 0 -1
    outer loop
      vertex 2.14687 -1.26562 1.85
      vertex -2.00625 -1.125 1.85
      vertex 2.00625 -1.125 1.85
    endloop
  endfacet
  facet normal -0 0 -1
    outer loop
      vertex -2.00625 -1.125 1.85
      vertex -2.14687 -1.26562 1.85
      vertex -2.00625 1.125 1.85
    endloop
  endfacet
  facet normal 0 0 -1
    outer loop
      vertex -2.14687 -1.26562 1.85
      vertex -2.00625 -1.125 1.85
      vertex 2.14687 -1.26562 1.85
    endloop
  endfacet
  facet normal 0 0 -1
    outer loop
      vertex 2.00625 1.125 1.85
      vertex 2.14687 1.26562 1.85
      vertex 2.00625 -1.125 1.85
    endloop
  endfacet
  facet normal 0 0 -1
    outer loop
      vertex -2.00625 1.125 1.85
      vertex 2.14687 1.26562 1.85
      vertex 2.00625 1.125 1.85
    endloop
  endfacet
  facet normal 0 0 -1
    outer loop
      vertex -2.00625 1.125 1.85
      vertex -2.14687 1.26562 1.85
      vertex 2.14687 1.26562 1.85
    endloop
  endfacet
  facet normal 0 0 -1
    outer loop
      vertex -2.14687 1.26562 1.85
      vertex -2.00625 1.125 1.85
      vertex -2.14687 -1.26562 1.85
    endloop
  endfacet
  facet normal -1 0 0
    outer loop
      vertex 2.14687 -1.26562 1.725
      vertex 2.14687 1.26562 1.85
      vertex 2.14687 1.26562 1.725
    endloop
  endfacet
  facet normal -1 -0 0
    outer loop
      vertex 2.14687 1.26562 1.85
      vertex 2.14687 -1.26562 1.725
      vertex 2.14687 -1.26562 1.85
    endloop
  endfacet
  facet normal 0 1 -0
    outer loop
      vertex 2.14687 -1.26562 1.725
      vertex -2.14687 -1.26562 1.85
      vertex 2.14687 -1.26562 1.85
    endloop
  endfacet
  facet normal 0 1 0
    outer loop
      vertex -2.14687 -1.26562 1.85
      vertex 2.14687 -1.26562 1.725
      vertex -2.14687 -1.26562 1.725
    endloop
  endfacet
  facet normal 0 -1 0
    outer loop
      vertex -2.14687 1.26562 1.725
      vertex 2.14687 1.26562 1.85
      vertex -2.14687 1.26562 1.85
    endloop
  endfacet
  facet normal 0 -1 -0
    outer loop
      vertex 2.14687 1.26562 1.85
      vertex -2.14687 1.26562 1.725
      vertex 2.14687 1.26562 1.725
    endloop
  endfacet
  facet normal 1 -0 0
    outer loop
      vertex -2.00625 -1.125 1.975
      vertex -2.00625 1.125 1.85
      vertex -2.00625 1.125 1.975
    endloop
  endfacet
  facet normal 1 0 0
    outer loop
      vertex -2.00625 1.125 1.85
      vertex -2.00625 -1.125 1.975
      vertex -2.00625 -1.125 1.85
    endloop
  endfacet
  facet normal -1 0 0
    outer loop
      vertex 2.00625 -1.125 1.85
      vertex 2.00625 1.125 1.975
      vertex 2.00625 1.125 1.85
    endloop
  endfacet
  facet normal -1 -0 0
    outer loop
      vertex 2.00625 1.125 1.975
      vertex 2.00625 -1.125 1.85
      vertex 2.00625 -1.125 1.975
    endloop
  endfacet
  facet normal 0 1 -0
    outer loop
      vertex 2.00625 -1.125 1.85
      vertex -2.00625 -1.125 1.975
      vertex 2.00625 -1.125 1.975
    endloop
  endfacet
  facet normal 0 1 0
    outer loop
      vertex -2.00625 -1.125 1.975
      vertex 2.00625 -1.125 1.85
      vertex -2.00625 -1.125 1.85
    endloop
  endfacet
  facet normal 0 -1 0
    outer loop
      vertex -2.00625 1.125 1.85
      vertex 2.00625 1.125 1.975
      vertex -2.00625 1.125 1.975
    endloop
  endfacet
  facet normal 0 -1 -0
    outer loop
      vertex 2.00625 1.125 1.975
      vertex -2.00625 1.125 1.85
      vertex 2.00625 1.125 1.85
    endloop
  endfacet
  facet normal -1 0 0
    outer loop
      vertex -1.99062 -1.10938 1.85
      vertex -1.99062 1.10938 3.35
      vertex -1.99062 1.10938 1.85
    endloop
  endfacet
  facet normal -1 -0 0
    outer loop
      vertex -1.99062 1.10938 3.35
      vertex -1.99062 -1.10938 1.85
      vertex -1.99062 -1.10938 3.35
    endloop
  endfacet
  facet normal 0 0 1
    outer loop
      vertex 1.99062 1.10938 3.35
      vertex 1.88125 1 3.35
      vertex 1.99062 -1.10938 3.35
    endloop
  endfacet
  facet normal 0 0 1
    outer loop
      vertex 1.99062 1.10938 3.35
      vertex -1.88125 1 3.35
      vertex 1.88125 1 3.35
    endloop
  endfacet
  facet normal 0 0 1
    outer loop
      vertex -1.88125 1 3.35
      vertex -1.99062 1.10938 3.35
      vertex -1.88125 -1 3.35
    endloop
  endfacet
  facet normal -0 0 1
    outer loop
      vertex -1.99062 1.10938 3.35
      vertex -1.88125 1 3.35
      vertex 1.99062 1.10938 3.35
    endloop
  endfacet
  facet normal -0 0 1
    outer loop
      vertex 1.88125 -1 3.35
      vertex 1.99062 -1.10938 3.35
      vertex 1.88125 1 3.35
    endloop
  endfacet
  facet normal -0 0 1
    outer loop
      vertex -1.88125 -1 3.35
      vertex 1.99062 -1.10938 3.35
      vertex 1.88125 -1 3.35
    endloop
  endfacet
  facet normal 0 0 1
    outer loop
      vertex -1.88125 -1 3.35
      vertex -1.99062 -1.10938 3.35
      vertex 1.99062 -1.10938 3.35
    endloop
  endfacet
  facet normal 0 0 1
    outer loop
      vertex -1.99062 -1.10938 3.35
      vertex -1.88125 -1 3.35
      vertex -1.99062 1.10938 3.35
    endloop
  endfacet
  facet normal 1 -0 0
    outer loop
      vertex 1.99062 -1.10938 3.35
      vertex 1.99062 1.10938 1.85
      vertex 1.99062 1.10938 3.35
    endloop
  endfacet
  facet normal 1 0 0
    outer loop
      vertex 1.99062 1.10938 1.85
      vertex 1.99062 -1.10938 3.35
      vertex 1.99062 -1.10938 1.85
    endloop
  endfacet
  facet normal 0 1 -0
    outer loop
      vertex 1.99062 1.10938 1.85
      vertex -1.99062 1.10938 3.35
      vertex 1.99062 1.10938 3.35
    endloop
  endfacet
  facet normal 0 1 0
    outer loop
      vertex -1.99062 1.10938 3.35
      vertex 1.99062 1.10938 1.85
      vertex -1.99062 1.10938 1.85
    endloop
  endfacet
  facet normal 0 0 -1
    outer loop
      vertex 1.99062 -1.10938 1.85
      vertex 1.75625 -0.875 1.85
      vertex 1.99062 1.10938 1.85
    endloop
  endfacet
  facet normal 0 0 -1
    outer loop
      vertex 1.99062 -1.10938 1.85
      vertex -1.75625 -0.875 1.85
      vertex 1.75625 -0.875 1.85
    endloop
  endfacet
  facet normal -0 0 -1
    outer loop
      vertex -1.75625 -0.875 1.85
      vertex -1.99062 -1.10938 1.85
      vertex -1.75625 0.875 1.85
    endloop
  endfacet
  facet normal 0 0 -1
    outer loop
      vertex -1.99062 -1.10938 1.85
      vertex -1.75625 -0.875 1.85
      vertex 1.99062 -1.10938 1.85
    endloop
  endfacet
  facet normal 0 0 -1
    outer loop
      vertex 1.75625 0.875 1.85
      vertex 1.99062 1.10938 1.85
      vertex 1.75625 -0.875 1.85
    endloop
  endfacet
  facet normal 0 0 -1
    outer loop
      vertex -1.75625 0.875 1.85
      vertex 1.99062 1.10938 1.85
      vertex 1.75625 0.875 1.85
    endloop
  endfacet
  facet normal 0 0 -1
    outer loop
      vertex -1.75625 0.875 1.85
      vertex -1.99062 1.10938 1.85
      vertex 1.99062 1.10938 1.85
    endloop
  endfacet
  facet normal 0 0 -1
    outer loop
      vertex -1.99062 1.10938 1.85
      vertex -1.75625 0.875 1.85
      vertex -1.99062 -1.10938 1.85
    endloop
  endfacet
  facet normal 0 -1 0
    outer loop
      vertex -1.99062 -1.10938 1.85
      vertex 1.99062 -1.10938 3.35
      vertex -1.99062 -1.10938 3.35
    endloop
  endfacet
  facet normal 0 -1 -0
    outer loop
      vertex 1.99062 -1.10938 3.35
      vertex -1.99062 -1.10938 1.85
      vertex 1.99062 -1.10938 1.85
    endloop
  endfacet
  facet normal 1 -0 0
    outer loop
      vertex -1.75625 -0.875 3.225
      vertex -1.75625 0.875 1.85
      vertex -1.75625 0.875 3.225
    endloop
  endfacet
  facet normal 1 0 0
    outer loop
      vertex -1.75625 0.875 1.85
      vertex -1.75625 -0.875 3.225
      vertex -1.75625 -0.875 1.85
    endloop
  endfacet
  facet normal -1 0 0
    outer loop
      vertex 1.75625 -0.875 1.85
      vertex 1.75625 0.875 3.225
      vertex 1.75625 0.875 1.85
    endloop
  endfacet
  facet normal -1 -0 0
    outer loop
      vertex 1.75625 0.875 3.225
      vertex 1.75625 -0.875 1.85
      vertex 1.75625 -0.875 3.225
    endloop
  endfacet
  facet normal 0 -1 0
    outer loop
      vertex -1.75625 0.875 1.85
      vertex 1.75625 0.875 3.225
      vertex -1.75625 0.875 3.225
    endloop
  endfacet
  facet normal 0 -1 -0
    outer loop
      vertex 1.75625 0.875 3.225
      vertex -1.75625 0.875 1.85
      vertex 1.75625 0.875 1.85
    endloop
  endfacet
  facet normal 0 1 -0
    outer loop
      vertex 1.75625 -0.875 1.85
      vertex -1.75625 -0.875 3.225
      vertex 1.75625 -0.875 3.225
    endloop
  endfacet
  facet normal 0 1 0
    outer loop
      vertex -1.75625 -0.875 3.225
      vertex 1.75625 -0.875 1.85
      vertex -1.75625 -0.875 1.85
    endloop
  endfacet
  facet normal 1 -0 0
    outer loop
      vertex -1.88125 -1 3.35
      vertex -1.88125 1 3.225
      vertex -1.88125 1 3.35
    endloop
  endfacet
  facet normal 1 0 0
    outer loop
      vertex -1.88125 1 3.225
      vertex -1.88125 -1 3.35
      vertex -1.88125 -1 3.225
    endloop
  endfacet
  facet normal -1 0 0
    outer loop
      vertex 1.88125 -1 3.225
      vertex 1.88125 1 3.35
      vertex 1.88125 1 3.225
    endloop
  endfacet
  facet normal -1 -0 0
    outer loop
      vertex 1.88125 1 3.35
      vertex 1.88125 -1 3.225
      vertex 1.88125 -1 3.35
    endloop
  endfacet
  facet normal 0 0 1
    outer loop
      vertex 1.88125 1 3.225
      vertex 1.86562 0.984375 3.225
      vertex 1.88125 -1 3.225
    endloop
  endfacet
  facet normal 0 0 1
    outer loop
      vertex 1.88125 1 3.225
      vertex -1.86562 0.984375 3.225
      vertex 1.86562 0.984375 3.225
    endloop
  endfacet
  facet normal 0 0 1
    outer loop
      vertex -1.86562 0.984375 3.225
      vertex -1.88125 1 3.225
      vertex -1.86562 -0.984375 3.225
    endloop
  endfacet
  facet normal -0 0 1
    outer loop
      vertex -1.88125 1 3.225
      vertex -1.86562 0.984375 3.225
      vertex 1.88125 1 3.225
    endloop
  endfacet
  facet normal -0 0 1
    outer loop
      vertex 1.86562 -0.984375 3.225
      vertex 1.88125 -1 3.225
      vertex 1.86562 0.984375 3.225
    endloop
  endfacet
  facet normal -0 0 1
    outer loop
      vertex -1.86562 -0.984375 3.225
      vertex 1.88125 -1 3.225
      vertex 1.86562 -0.984375 3.225
    endloop
  endfacet
  facet normal 0 0 1
    outer loop
      vertex -1.86562 -0.984375 3.225
      vertex -1.88125 -1 3.225
      vertex 1.88125 -1 3.225
    endloop
  endfacet
  facet normal 0 0 1
    outer loop
      vertex -1.88125 -1 3.225
      vertex -1.86562 -0.984375 3.225
      vertex -1.88125 1 3.225
    endloop
  endfacet
  facet normal 0 0 -1
    outer loop
      vertex -1.11485 -0.03125 3.225
      vertex -0.885154 0.03125 3.225
      vertex -0.885154 -0.03125 3.225
    endloop
  endfacet
  facet normal -0 0 -1
    outer loop
      vertex -0.885154 0.03125 3.225
      vertex -1.11485 -0.03125 3.225
      vertex -1.11485 0.03125 3.225
    endloop
  endfacet
  facet normal 0 0 -1
    outer loop
      vertex -0.114846 -0.03125 3.225
      vertex 0.114846 0.03125 3.225
      vertex 0.114846 -0.03125 3.225
    endloop
  endfacet
  facet normal -0 0 -1
    outer loop
      vertex 0.114846 0.03125 3.225
      vertex -0.114846 -0.03125 3.225
      vertex -0.114846 0.03125 3.225
    endloop
  endfacet
  facet normal 0 0 -1
    outer loop
      vertex 0.885154 -0.03125 3.225
      vertex 1.11485 0.03125 3.225
      vertex 1.11485 -0.03125 3.225
    endloop
  endfacet
  facet normal -0 0 -1
    outer loop
      vertex 1.11485 0.03125 3.225
      vertex 0.885154 -0.03125 3.225
      vertex 0.885154 0.03125 3.225
    endloop
  endfacet
  facet normal 0 0 -1
    outer loop
      vertex 1.75625 -0.875 3.225
      vertex 1.11485 -0.03125 3.225
      vertex 1.75625 0.875 3.225
    endloop
  endfacet
  facet normal 0 0 -1
    outer loop
      vertex 1.75625 -0.875 3.225
      vertex 1.10113 -0.073473 3.225
      vertex 1.11485 -0.03125 3.225
    endloop
  endfacet
  facet normal 0 0 -1
    outer loop
      vertex 1.75625 -0.875 3.225
      vertex 1.03863 -0.118881 3.225
      vertex 1.10113 -0.073473 3.225
    endloop
  endfacet
  facet normal 0 0 -1
    outer loop
      vertex 1.75625 -0.875 3.225
      vertex 0.961372 -0.118881 3.225
      vertex 1.03863 -0.118881 3.225
    endloop
  endfacet
  facet normal 0 0 -1
    outer loop
      vertex 0.0386267 -0.118881 3.225
      vertex 0.961372 -0.118881 3.225
      vertex 1.75625 -0.875 3.225
    endloop
  endfacet
  facet normal 0 0 -1
    outer loop
      vertex 0.885154 -0.03125 3.225
      vertex 0.114846 -0.03125 3.225
      vertex 0.885154 0.03125 3.225
    endloop
  endfacet
  facet normal 0 0 -1
    outer loop
      vertex 0.898872 -0.073473 3.225
      vertex 0.114846 -0.03125 3.225
      vertex 0.885154 -0.03125 3.225
    endloop
  endfacet
  facet normal 0 0 -1
    outer loop
      vertex 0.961372 -0.118881 3.225
      vertex 0.0386267 -0.118881 3.225
      vertex 0.898872 -0.073473 3.225
    endloop
  endfacet
  facet normal 0 0 -1
    outer loop
      vertex 0.898872 -0.073473 3.225
      vertex 0.101127 -0.073473 3.225
      vertex 0.114846 -0.03125 3.225
    endloop
  endfacet
  facet normal -0 0 -1
    outer loop
      vertex 0.898872 -0.073473 3.225
      vertex 0.0386267 -0.118881 3.225
      vertex 0.101127 -0.073473 3.225
    endloop
  endfacet
  facet normal 0 0 -1
    outer loop
      vertex 1.75625 -0.875 3.225
      vertex -0.0386267 -0.118881 3.225
      vertex 0.0386267 -0.118881 3.225
    endloop
  endfacet
  facet normal 0 0 -1
    outer loop
      vertex -0.114846 -0.03125 3.225
      vertex -0.885154 -0.03125 3.225
      vertex -0.114846 0.03125 3.225
    endloop
  endfacet
  facet normal 0 0 -1
    outer loop
      vertex -0.101127 -0.073473 3.225
      vertex -0.885154 -0.03125 3.225
      vertex -0.114846 -0.03125 3.225
    endloop
  endfacet
  facet normal 0 0 -1
    outer loop
      vertex -0.898872 -0.073473 3.225
      vertex -0.101127 -0.073473 3.225
      vertex -0.0386267 -0.118881 3.225
    endloop
  endfacet
  facet normal 0 0 -1
    outer loop
      vertex -1.75625 -0.875 3.225
      vertex -0.0386267 -0.118881 3.225
      vertex 1.75625 -0.875 3.225
    endloop
  endfacet
  facet normal 0 0 -1
    outer loop
      vertex -0.101127 -0.073473 3.225
      vertex -0.898872 -0.073473 3.225
      vertex -0.885154 -0.03125 3.225
    endloop
  endfacet
  facet normal 0 0 -1
    outer loop
      vertex -0.0386267 -0.118881 3.225
      vertex -0.961372 -0.118881 3.225
      vertex -0.898872 -0.073473 3.225
    endloop
  endfacet
  facet normal -0 0 -1
    outer loop
      vertex -0.0386267 -0.118881 3.225
      vertex -1.75625 -0.875 3.225
      vertex -0.961372 -0.118881 3.225
    endloop
  endfacet
  facet normal -0 0 -1
    outer loop
      vertex -1.11485 -0.03125 3.225
      vertex -1.75625 -0.875 3.225
      vertex -1.11485 0.03125 3.225
    endloop
  endfacet
  facet normal -0 0 -1
    outer loop
      vertex -1.10113 -0.073473 3.225
      vertex -1.75625 -0.875 3.225
      vertex -1.11485 -0.03125 3.225
    endloop
  endfacet
  facet normal -0 0 -1
    outer loop
      vertex -1.03863 -0.118881 3.225
      vertex -1.75625 -0.875 3.225
      vertex -1.10113 -0.073473 3.225
    endloop
  endfacet
  facet normal -0 0 -1
    outer loop
      vertex -0.961372 -0.118881 3.225
      vertex -1.75625 -0.875 3.225
      vertex -1.03863 -0.118881 3.225
    endloop
  endfacet
  facet normal 0 0 -1
    outer loop
      vertex 1.11485 0.03125 3.225
      vertex 1.75625 0.875 3.225
      vertex 1.11485 -0.03125 3.225
    endloop
  endfacet
  facet normal 0 0 -1
    outer loop
      vertex 1.10113 0.073473 3.225
      vertex 1.75625 0.875 3.225
      vertex 1.11485 0.03125 3.225
    endloop
  endfacet
  facet normal 0 0 -1
    outer loop
      vertex 1.03863 0.118881 3.225
      vertex 1.75625 0.875 3.225
      vertex 1.10113 0.073473 3.225
    endloop
  endfacet
  facet normal 0 0 -1
    outer loop
      vertex 0.961372 0.118881 3.225
      vertex 1.75625 0.875 3.225
      vertex 1.03863 0.118881 3.225
    endloop
  endfacet
  facet normal 0 0 -1
    outer loop
      vertex 0.0386267 0.118881 3.225
      vertex 0.961372 0.118881 3.225
      vertex 0.898872 0.073473 3.225
    endloop
  endfacet
  facet normal 0 0 -1
    outer loop
      vertex 0.114846 0.03125 3.225
      vertex 0.885154 0.03125 3.225
      vertex 0.114846 -0.03125 3.225
    endloop
  endfacet
  facet normal 0 0 -1
    outer loop
      vertex 0.885154 0.03125 3.225
      vertex 0.114846 0.03125 3.225
      vertex 0.898872 0.073473 3.225
    endloop
  endfacet
  facet normal 0 0 -1
    outer loop
      vertex 0.101127 0.073473 3.225
      vertex 0.898872 0.073473 3.225
      vertex 0.114846 0.03125 3.225
    endloop
  endfacet
  facet normal 0 0 -1
    outer loop
      vertex 0.0386267 0.118881 3.225
      vertex 0.898872 0.073473 3.225
      vertex 0.101127 0.073473 3.225
    endloop
  endfacet
  facet normal 0 0 -1
    outer loop
      vertex 0.961372 0.118881 3.225
      vertex 0.0386267 0.118881 3.225
      vertex 1.75625 0.875 3.225
    endloop
  endfacet
  facet normal 0 0 -1
    outer loop
      vertex -0.0386267 0.118881 3.225
      vertex 1.75625 0.875 3.225
      vertex 0.0386267 0.118881 3.225
    endloop
  endfacet
  facet normal 0 0 -1
    outer loop
      vertex -0.885154 0.03125 3.225
      vertex -0.114846 0.03125 3.225
      vertex -0.885154 -0.03125 3.225
    endloop
  endfacet
  facet normal 0 0 -1
    outer loop
      vertex -0.114846 0.03125 3.225
      vertex -0.885154 0.03125 3.225
      vertex -0.101127 0.073473 3.225
    endloop
  endfacet
  facet normal 0 0 -1
    outer loop
      vertex -0.898872 0.073473 3.225
      vertex -0.101127 0.073473 3.225
      vertex -0.885154 0.03125 3.225
    endloop
  endfacet
  facet normal 0 0 -1
    outer loop
      vertex -0.101127 0.073473 3.225
      vertex -0.898872 0.073473 3.225
      vertex -0.0386267 0.118881 3.225
    endloop
  endfacet
  facet normal 0 0 -1
    outer loop
      vertex -0.961372 0.118881 3.225
      vertex -0.0386267 0.118881 3.225
      vertex -0.898872 0.073473 3.225
    endloop
  endfacet
  facet normal 0 0 -1
    outer loop
      vertex -1.75625 0.875 3.225
      vertex -0.0386267 0.118881 3.225
      vertex -0.961372 0.118881 3.225
    endloop
  endfacet
  facet normal 0 0 -1
    outer loop
      vertex -1.75625 0.875 3.225
      vertex -0.961372 0.118881 3.225
      vertex -1.03863 0.118881 3.225
    endloop
  endfacet
  facet normal 0 0 -1
    outer loop
      vertex -1.75625 0.875 3.225
      vertex -1.11485 0.03125 3.225
      vertex -1.75625 -0.875 3.225
    endloop
  endfacet
  facet normal 0 0 -1
    outer loop
      vertex -0.0386267 0.118881 3.225
      vertex -1.75625 0.875 3.225
      vertex 1.75625 0.875 3.225
    endloop
  endfacet
  facet normal 0 0 -1
    outer loop
      vertex -1.10113 0.073473 3.225
      vertex -1.75625 0.875 3.225
      vertex -1.03863 0.118881 3.225
    endloop
  endfacet
  facet normal 0 0 -1
    outer loop
      vertex -1.11485 0.03125 3.225
      vertex -1.75625 0.875 3.225
      vertex -1.10113 0.073473 3.225
    endloop
  endfacet
  facet normal 0 1 -0
    outer loop
      vertex 1.88125 -1 3.225
      vertex -1.88125 -1 3.35
      vertex 1.88125 -1 3.35
    endloop
  endfacet
  facet normal 0 1 0
    outer loop
      vertex -1.88125 -1 3.35
      vertex 1.88125 -1 3.225
      vertex -1.88125 -1 3.225
    endloop
  endfacet
  facet normal 0 -1 0
    outer loop
      vertex -1.88125 1 3.225
      vertex 1.88125 1 3.35
      vertex -1.88125 1 3.35
    endloop
  endfacet
  facet normal 0 -1 -0
    outer loop
      vertex 1.88125 1 3.35
      vertex -1.88125 1 3.225
      vertex 1.88125 1 3.225
    endloop
  endfacet
  facet normal -0.951058 -0.309012 -0
    outer loop
      vertex -0.885154 0.03125 3.2875
      vertex -0.898872 0.073473 3.225
      vertex -0.885154 0.03125 3.225
    endloop
  endfacet
  facet normal -0.951058 -0.309012 0
    outer loop
      vertex -0.898872 0.073473 3.225
      vertex -0.885154 0.03125 3.2875
      vertex -0.898872 0.073473 3.4125
    endloop
  endfacet
  facet normal -0.951058 -0.309011 -0
    outer loop
      vertex -0.875 0 3.4125
      vertex -0.885154 0.03125 3.2875
      vertex -0.875 0 3.2875
    endloop
  endfacet
  facet normal -0.951058 -0.309012 -1.56578e-07
    outer loop
      vertex -0.885154 0.03125 3.2875
      vertex -0.875 0 3.4125
      vertex -0.898872 0.073473 3.4125
    endloop
  endfacet
  facet normal 0.951055 -0.309022 0
    outer loop
      vertex -1.10113 0.073473 3.4125
      vertex -1.11485 0.03125 3.2875
      vertex -1.10113 0.073473 3.225
    endloop
  endfacet
  facet normal 0.951055 -0.309023 3.85252e-07
    outer loop
      vertex -1.125 0 3.4125
      vertex -1.11485 0.03125 3.2875
      vertex -1.10113 0.073473 3.4125
    endloop
  endfacet
  facet normal 0.951054 -0.309024 0
    outer loop
      vertex -1.11485 0.03125 3.2875
      vertex -1.125 0 3.4125
      vertex -1.125 0 3.2875
    endloop
  endfacet
  facet normal 0.951055 -0.309022 0
    outer loop
      vertex -1.10113 0.073473 3.225
      vertex -1.11485 0.03125 3.2875
      vertex -1.11485 0.03125 3.225
    endloop
  endfacet
  facet normal 0 -1 0
    outer loop
      vertex -1.03863 0.118881 3.225
      vertex -0.961372 0.118881 3.4125
      vertex -1.03863 0.118881 3.4125
    endloop
  endfacet
  facet normal 0 -1 -0
    outer loop
      vertex -0.961372 0.118881 3.4125
      vertex -1.03863 0.118881 3.225
      vertex -0.961372 0.118881 3.225
    endloop
  endfacet
  facet normal -0.58778 -0.809021 0
    outer loop
      vertex -0.961372 0.118881 3.225
      vertex -0.898872 0.073473 3.4125
      vertex -0.961372 0.118881 3.4125
    endloop
  endfacet
  facet normal -0.58778 -0.809021 -0
    outer loop
      vertex -0.898872 0.073473 3.4125
      vertex -0.961372 0.118881 3.225
      vertex -0.898872 0.073473 3.225
    endloop
  endfacet
  facet normal 0 0 1
    outer loop
      vertex 1.86562 0.984375 3.4125
      vertex 1.125 0 3.4125
      vertex 1.86562 -0.984375 3.4125
    endloop
  endfacet
  facet normal 0 0 1
    outer loop
      vertex 1.86562 0.984375 3.4125
      vertex 1.10113 0.073473 3.4125
      vertex 1.125 0 3.4125
    endloop
  endfacet
  facet normal 0 0 1
    outer loop
      vertex 1.86562 0.984375 3.4125
      vertex 1.03863 0.118881 3.4125
      vertex 1.10113 0.073473 3.4125
    endloop
  endfacet
  facet normal 0 0 1
    outer loop
      vertex 1.86562 0.984375 3.4125
      vertex 0.961372 0.118881 3.4125
      vertex 1.03863 0.118881 3.4125
    endloop
  endfacet
  facet normal 0 0 1
    outer loop
      vertex 0.0386267 0.118881 3.4125
      vertex 0.961372 0.118881 3.4125
      vertex 1.86562 0.984375 3.4125
    endloop
  endfacet
  facet normal 0 0 1
    outer loop
      vertex 0.898872 0.073473 3.4125
      vertex 0.125 0 3.4125
      vertex 0.875 0 3.4125
    endloop
  endfacet
  facet normal 0 0 1
    outer loop
      vertex 0.961372 0.118881 3.4125
      vertex 0.0386267 0.118881 3.4125
      vertex 0.898872 0.073473 3.4125
    endloop
  endfacet
  facet normal 0 0 1
    outer loop
      vertex 0.898872 0.073473 3.4125
      vertex 0.101127 0.073473 3.4125
      vertex 0.125 0 3.4125
    endloop
  endfacet
  facet normal 0 0 1
    outer loop
      vertex 0.898872 0.073473 3.4125
      vertex 0.0386267 0.118881 3.4125
      vertex 0.101127 0.073473 3.4125
    endloop
  endfacet
  facet normal 0 0 1
    outer loop
      vertex 1.86562 0.984375 3.4125
      vertex -0.0386267 0.118881 3.4125
      vertex 0.0386267 0.118881 3.4125
    endloop
  endfacet
  facet normal 0 0 1
    outer loop
      vertex -0.101127 0.073473 3.4125
      vertex -0.875 0 3.4125
      vertex -0.125 0 3.4125
    endloop
  endfacet
  facet normal 0 0 1
    outer loop
      vertex -0.898872 0.073473 3.4125
      vertex -0.101127 0.073473 3.4125
      vertex -0.0386267 0.118881 3.4125
    endloop
  endfacet
  facet normal -0 0 1
    outer loop
      vertex -1.86562 0.984375 3.4125
      vertex -0.0386267 0.118881 3.4125
      vertex 1.86562 0.984375 3.4125
    endloop
  endfacet
  facet normal 0 0 1
    outer loop
      vertex -0.101127 0.073473 3.4125
      vertex -0.898872 0.073473 3.4125
      vertex -0.875 0 3.4125
    endloop
  endfacet
  facet normal 0 0 1
    outer loop
      vertex -0.0386267 0.118881 3.4125
      vertex -0.961372 0.118881 3.4125
      vertex -0.898872 0.073473 3.4125
    endloop
  endfacet
  facet normal 0 0 1
    outer loop
      vertex -0.0386267 0.118881 3.4125
      vertex -1.86562 0.984375 3.4125
      vertex -0.961372 0.118881 3.4125
    endloop
  endfacet
  facet normal 0 0 1
    outer loop
      vertex -1.10113 0.073473 3.4125
      vertex -1.86562 0.984375 3.4125
      vertex -1.125 0 3.4125
    endloop
  endfacet
  facet normal 0 0 1
    outer loop
      vertex -1.03863 0.118881 3.4125
      vertex -1.86562 0.984375 3.4125
      vertex -1.10113 0.073473 3.4125
    endloop
  endfacet
  facet normal 0 0 1
    outer loop
      vertex -0.961372 0.118881 3.4125
      vertex -1.86562 0.984375 3.4125
      vertex -1.03863 0.118881 3.4125
    endloop
  endfacet
  facet normal -0 0 1
    outer loop
      vertex 1.10113 -0.073473 3.4125
      vertex 1.86562 -0.984375 3.4125
      vertex 1.125 0 3.4125
    endloop
  endfacet
  facet normal -0 0 1
    outer loop
      vertex 1.03863 -0.118881 3.4125
      vertex 1.86562 -0.984375 3.4125
      vertex 1.10113 -0.073473 3.4125
    endloop
  endfacet
  facet normal -0 0 1
    outer loop
      vertex 0.961372 -0.118881 3.4125
      vertex 1.86562 -0.984375 3.4125
      vertex 1.03863 -0.118881 3.4125
    endloop
  endfacet
  facet normal 0 0 1
    outer loop
      vertex 0.0386267 -0.118881 3.4125
      vertex 0.961372 -0.118881 3.4125
      vertex 0.898872 -0.073473 3.4125
    endloop
  endfacet
  facet normal -0 0 1
    outer loop
      vertex 0.125 0 3.4125
      vertex 0.898872 -0.073473 3.4125
      vertex 0.875 0 3.4125
    endloop
  endfacet
  facet normal 0 0 1
    outer loop
      vertex 0.101127 -0.073473 3.4125
      vertex 0.898872 -0.073473 3.4125
      vertex 0.125 0 3.4125
    endloop
  endfacet
  facet normal 0 0 1
    outer loop
      vertex 0.0386267 -0.118881 3.4125
      vertex 0.898872 -0.073473 3.4125
      vertex 0.101127 -0.073473 3.4125
    endloop
  endfacet
  facet normal 0 0 1
    outer loop
      vertex 0.961372 -0.118881 3.4125
      vertex 0.0386267 -0.118881 3.4125
      vertex 1.86562 -0.984375 3.4125
    endloop
  endfacet
  facet normal -0 0 1
    outer loop
      vertex -0.0386267 -0.118881 3.4125
      vertex 1.86562 -0.984375 3.4125
      vertex 0.0386267 -0.118881 3.4125
    endloop
  endfacet
  facet normal -0 0 1
    outer loop
      vertex -0.875 0 3.4125
      vertex -0.101127 -0.073473 3.4125
      vertex -0.125 0 3.4125
    endloop
  endfacet
  facet normal 0 0 1
    outer loop
      vertex -0.898872 -0.073473 3.4125
      vertex -0.101127 -0.073473 3.4125
      vertex -0.875 0 3.4125
    endloop
  endfacet
  facet normal 0 0 1
    outer loop
      vertex -0.101127 -0.073473 3.4125
      vertex -0.898872 -0.073473 3.4125
      vertex -0.0386267 -0.118881 3.4125
    endloop
  endfacet
  facet normal 0 0 1
    outer loop
      vertex -0.961372 -0.118881 3.4125
      vertex -0.0386267 -0.118881 3.4125
      vertex -0.898872 -0.073473 3.4125
    endloop
  endfacet
  facet normal 0 0 1
    outer loop
      vertex -1.86562 -0.984375 3.4125
      vertex -0.0386267 -0.118881 3.4125
      vertex -0.961372 -0.118881 3.4125
    endloop
  endfacet
  facet normal 0 0 1
    outer loop
      vertex -1.86562 -0.984375 3.4125
      vertex -0.961372 -0.118881 3.4125
      vertex -1.03863 -0.118881 3.4125
    endloop
  endfacet
  facet normal 0 0 1
    outer loop
      vertex -1.86562 -0.984375 3.4125
      vertex -1.125 0 3.4125
      vertex -1.86562 0.984375 3.4125
    endloop
  endfacet
  facet normal 0 0 1
    outer loop
      vertex -0.0386267 -0.118881 3.4125
      vertex -1.86562 -0.984375 3.4125
      vertex 1.86562 -0.984375 3.4125
    endloop
  endfacet
  facet normal 0 0 1
    outer loop
      vertex -1.10113 -0.073473 3.4125
      vertex -1.86562 -0.984375 3.4125
      vertex -1.03863 -0.118881 3.4125
    endloop
  endfacet
  facet normal 0 0 1
    outer loop
      vertex -1.125 0 3.4125
      vertex -1.86562 -0.984375 3.4125
      vertex -1.10113 -0.073473 3.4125
    endloop
  endfacet
  facet normal 0.58778 -0.809021 0
    outer loop
      vertex -1.10113 0.073473 3.225
      vertex -1.03863 0.118881 3.4125
      vertex -1.10113 0.073473 3.4125
    endloop
  endfacet
  facet normal 0.58778 -0.809021 0
    outer loop
      vertex -1.03863 0.118881 3.4125
      vertex -1.10113 0.073473 3.225
      vertex -1.03863 0.118881 3.225
    endloop
  endfacet
  facet normal 0.951054 0.309024 0
    outer loop
      vertex -1.125 0 3.4125
      vertex -1.11485 -0.03125 3.2875
      vertex -1.125 0 3.2875
    endloop
  endfacet
  facet normal 0.951055 0.309023 3.85252e-07
    outer loop
      vertex -1.10113 -0.073473 3.4125
      vertex -1.11485 -0.03125 3.2875
      vertex -1.125 0 3.4125
    endloop
  endfacet
  facet normal 0.951055 0.309022 -0
    outer loop
      vertex -1.10113 -0.073473 3.225
      vertex -1.11485 -0.03125 3.2875
      vertex -1.10113 -0.073473 3.4125
    endloop
  endfacet
  facet normal 0.951055 0.309022 0
    outer loop
      vertex -1.11485 -0.03125 3.2875
      vertex -1.10113 -0.073473 3.225
      vertex -1.11485 -0.03125 3.225
    endloop
  endfacet
  facet normal -0.58778 0.809021 0
    outer loop
      vertex -0.898872 -0.073473 3.225
      vertex -0.961372 -0.118881 3.4125
      vertex -0.898872 -0.073473 3.4125
    endloop
  endfacet
  facet normal -0.58778 0.809021 0
    outer loop
      vertex -0.961372 -0.118881 3.4125
      vertex -0.898872 -0.073473 3.225
      vertex -0.961372 -0.118881 3.225
    endloop
  endfacet
  facet normal 0.58778 0.809021 -0
    outer loop
      vertex -1.03863 -0.118881 3.225
      vertex -1.10113 -0.073473 3.4125
      vertex -1.03863 -0.118881 3.4125
    endloop
  endfacet
  facet normal 0.58778 0.809021 0
    outer loop
      vertex -1.10113 -0.073473 3.4125
      vertex -1.03863 -0.118881 3.225
      vertex -1.10113 -0.073473 3.225
    endloop
  endfacet
  facet normal -0.951058 0.309012 0
    outer loop
      vertex -0.885154 -0.03125 3.225
      vertex -0.898872 -0.073473 3.225
      vertex -0.885154 -0.03125 3.2875
    endloop
  endfacet
  facet normal -0.951058 0.309011 0
    outer loop
      vertex -0.885154 -0.03125 3.2875
      vertex -0.875 0 3.4125
      vertex -0.875 0 3.2875
    endloop
  endfacet
  facet normal -0.951058 0.309012 0
    outer loop
      vertex -0.898872 -0.073473 3.4125
      vertex -0.885154 -0.03125 3.2875
      vertex -0.898872 -0.073473 3.225
    endloop
  endfacet
  facet normal -0.951058 0.309012 -1.56578e-07
    outer loop
      vertex -0.885154 -0.03125 3.2875
      vertex -0.898872 -0.073473 3.4125
      vertex -0.875 0 3.4125
    endloop
  endfacet
  facet normal 0 1 -0
    outer loop
      vertex -0.961372 -0.118881 3.225
      vertex -1.03863 -0.118881 3.4125
      vertex -0.961372 -0.118881 3.4125
    endloop
  endfacet
  facet normal 0 1 0
    outer loop
      vertex -1.03863 -0.118881 3.4125
      vertex -0.961372 -0.118881 3.225
      vertex -1.03863 -0.118881 3.225
    endloop
  endfacet
  facet normal -0.951055 -0.309023 -0
    outer loop
      vertex 0.114846 0.03125 3.2875
      vertex 0.101127 0.073473 3.225
      vertex 0.114846 0.03125 3.225
    endloop
  endfacet
  facet normal -0.951055 -0.309023 0
    outer loop
      vertex 0.101127 0.073473 3.225
      vertex 0.114846 0.03125 3.2875
      vertex 0.101127 0.073473 3.4125
    endloop
  endfacet
  facet normal -0.951055 -0.309023 -0
    outer loop
      vertex 0.125 0 3.4125
      vertex 0.114846 0.03125 3.2875
      vertex 0.125 0 3.2875
    endloop
  endfacet
  facet normal -0.951055 -0.309023 -1.15594e-08
    outer loop
      vertex 0.114846 0.03125 3.2875
      vertex 0.125 0 3.4125
      vertex 0.101127 0.073473 3.4125
    endloop
  endfacet
  facet normal 0.951055 -0.309023 0
    outer loop
      vertex -0.101127 0.073473 3.4125
      vertex -0.114846 0.03125 3.2875
      vertex -0.101127 0.073473 3.225
    endloop
  endfacet
  facet normal 0.951055 -0.309023 -1.15594e-08
    outer loop
      vertex -0.125 0 3.4125
      vertex -0.114846 0.03125 3.2875
      vertex -0.101127 0.073473 3.4125
    endloop
  endfacet
  facet normal 0.951055 -0.309023 0
    outer loop
      vertex -0.114846 0.03125 3.2875
      vertex -0.125 0 3.4125
      vertex -0.125 0 3.2875
    endloop
  endfacet
  facet normal 0.951055 -0.309023 0
    outer loop
      vertex -0.101127 0.073473 3.225
      vertex -0.114846 0.03125 3.2875
      vertex -0.114846 0.03125 3.225
    endloop
  endfacet
  facet normal 0 -1 0
    outer loop
      vertex -0.0386267 0.118881 3.225
      vertex 0.0386267 0.118881 3.4125
      vertex -0.0386267 0.118881 3.4125
    endloop
  endfacet
  facet normal 0 -1 -0
    outer loop
      vertex 0.0386267 0.118881 3.4125
      vertex -0.0386267 0.118881 3.225
      vertex 0.0386267 0.118881 3.225
    endloop
  endfacet
  facet normal -0.58778 -0.809021 0
    outer loop
      vertex 0.0386267 0.118881 3.225
      vertex 0.101127 0.073473 3.4125
      vertex 0.0386267 0.118881 3.4125
    endloop
  endfacet
  facet normal -0.58778 -0.809021 -0
    outer loop
      vertex 0.101127 0.073473 3.4125
      vertex 0.0386267 0.118881 3.225
      vertex 0.101127 0.073473 3.225
    endloop
  endfacet
  facet normal 0.58778 -0.809021 0
    outer loop
      vertex -0.101127 0.073473 3.225
      vertex -0.0386267 0.118881 3.4125
      vertex -0.101127 0.073473 3.4125
    endloop
  endfacet
  facet normal 0.58778 -0.809021 0
    outer loop
      vertex -0.0386267 0.118881 3.4125
      vertex -0.101127 0.073473 3.225
      vertex -0.0386267 0.118881 3.225
    endloop
  endfacet
  facet normal 0 1 -0
    outer loop
      vertex 0.0386267 -0.118881 3.225
      vertex -0.0386267 -0.118881 3.4125
      vertex 0.0386267 -0.118881 3.4125
    endloop
  endfacet
  facet normal 0 1 0
    outer loop
      vertex -0.0386267 -0.118881 3.4125
      vertex 0.0386267 -0.118881 3.225
      vertex -0.0386267 -0.118881 3.225
    endloop
  endfacet
  facet normal -0.58778 0.809021 0
    outer loop
      vertex 0.101127 -0.073473 3.225
      vertex 0.0386267 -0.118881 3.4125
      vertex 0.101127 -0.073473 3.4125
    endloop
  endfacet
  facet normal -0.58778 0.809021 0
    outer loop
      vertex 0.0386267 -0.118881 3.4125
      vertex 0.101127 -0.073473 3.225
      vertex 0.0386267 -0.118881 3.225
    endloop
  endfacet
  facet normal -0.951055 0.309023 0
    outer loop
      vertex 0.114846 -0.03125 3.225
      vertex 0.101127 -0.073473 3.225
      vertex 0.114846 -0.03125 3.2875
    endloop
  endfacet
  facet normal -0.951055 0.309023 0
    outer loop
      vertex 0.114846 -0.03125 3.2875
      vertex 0.125 0 3.4125
      vertex 0.125 0 3.2875
    endloop
  endfacet
  facet normal -0.951055 0.309023 0
    outer loop
      vertex 0.101127 -0.073473 3.4125
      vertex 0.114846 -0.03125 3.2875
      vertex 0.101127 -0.073473 3.225
    endloop
  endfacet
  facet normal -0.951055 0.309023 -1.15594e-08
    outer loop
      vertex 0.114846 -0.03125 3.2875
      vertex 0.101127 -0.073473 3.4125
      vertex 0.125 0 3.4125
    endloop
  endfacet
  facet normal 0.951055 0.309023 0
    outer loop
      vertex -0.125 0 3.4125
      vertex -0.114846 -0.03125 3.2875
      vertex -0.125 0 3.2875
    endloop
  endfacet
  facet normal 0.951055 0.309023 -1.15594e-08
    outer loop
      vertex -0.101127 -0.073473 3.4125
      vertex -0.114846 -0.03125 3.2875
      vertex -0.125 0 3.4125
    endloop
  endfacet
  facet normal 0.951055 0.309023 -0
    outer loop
      vertex -0.101127 -0.073473 3.225
      vertex -0.114846 -0.03125 3.2875
      vertex -0.101127 -0.073473 3.4125
    endloop
  endfacet
  facet normal 0.951055 0.309023 0
    outer loop
      vertex -0.114846 -0.03125 3.2875
      vertex -0.101127 -0.073473 3.225
      vertex -0.114846 -0.03125 3.225
    endloop
  endfacet
  facet normal 0.58778 0.809021 -0
    outer loop
      vertex -0.0386267 -0.118881 3.225
      vertex -0.101127 -0.073473 3.4125
      vertex -0.0386267 -0.118881 3.4125
    endloop
  endfacet
  facet normal 0.58778 0.809021 0
    outer loop
      vertex -0.101127 -0.073473 3.4125
      vertex -0.0386267 -0.118881 3.225
      vertex -0.101127 -0.073473 3.225
    endloop
  endfacet
  facet normal -0.951055 -0.309022 -0
    outer loop
      vertex 1.11485 0.03125 3.2875
      vertex 1.10113 0.073473 3.225
      vertex 1.11485 0.03125 3.225
    endloop
  endfacet
  facet normal -0.951055 -0.309022 0
    outer loop
      vertex 1.10113 0.073473 3.225
      vertex 1.11485 0.03125 3.2875
      vertex 1.10113 0.073473 3.4125
    endloop
  endfacet
  facet normal -0.951054 -0.309024 -0
    outer loop
      vertex 1.125 0 3.4125
      vertex 1.11485 0.03125 3.2875
      vertex 1.125 0 3.2875
    endloop
  endfacet
  facet normal -0.951055 -0.309023 3.85252e-07
    outer loop
      vertex 1.11485 0.03125 3.2875
      vertex 1.125 0 3.4125
      vertex 1.10113 0.073473 3.4125
    endloop
  endfacet
  facet normal 0.58778 -0.809021 0
    outer loop
      vertex 0.898872 0.073473 3.225
      vertex 0.961372 0.118881 3.4125
      vertex 0.898872 0.073473 3.4125
    endloop
  endfacet
  facet normal 0.58778 -0.809021 0
    outer loop
      vertex 0.961372 0.118881 3.4125
      vertex 0.898872 0.073473 3.225
      vertex 0.961372 0.118881 3.225
    endloop
  endfacet
  facet normal -0.58778 -0.809021 0
    outer loop
      vertex 1.03863 0.118881 3.225
      vertex 1.10113 0.073473 3.4125
      vertex 1.03863 0.118881 3.4125
    endloop
  endfacet
  facet normal -0.58778 -0.809021 -0
    outer loop
      vertex 1.10113 0.073473 3.4125
      vertex 1.03863 0.118881 3.225
      vertex 1.10113 0.073473 3.225
    endloop
  endfacet
  facet normal 0.951058 -0.309012 0
    outer loop
      vertex 0.898872 0.073473 3.4125
      vertex 0.885154 0.03125 3.2875
      vertex 0.898872 0.073473 3.225
    endloop
  endfacet
  facet normal 0.951058 -0.309012 -1.56578e-07
    outer loop
      vertex 0.875 0 3.4125
      vertex 0.885154 0.03125 3.2875
      vertex 0.898872 0.073473 3.4125
    endloop
  endfacet
  facet normal 0.951058 -0.309011 0
    outer loop
      vertex 0.885154 0.03125 3.2875
      vertex 0.875 0 3.4125
      vertex 0.875 0 3.2875
    endloop
  endfacet
  facet normal 0.951058 -0.309012 0
    outer loop
      vertex 0.898872 0.073473 3.225
      vertex 0.885154 0.03125 3.2875
      vertex 0.885154 0.03125 3.225
    endloop
  endfacet
  facet normal 0 -1 0
    outer loop
      vertex 0.961372 0.118881 3.225
      vertex 1.03863 0.118881 3.4125
      vertex 0.961372 0.118881 3.4125
    endloop
  endfacet
  facet normal 0 -1 -0
    outer loop
      vertex 1.03863 0.118881 3.4125
      vertex 0.961372 0.118881 3.225
      vertex 1.03863 0.118881 3.225
    endloop
  endfacet
  facet normal 0.951058 0.309011 0
    outer loop
      vertex 0.875 0 3.4125
      vertex 0.885154 -0.03125 3.2875
      vertex 0.875 0 3.2875
    endloop
  endfacet
  facet normal 0.951058 0.309012 -1.56578e-07
    outer loop
      vertex 0.898872 -0.073473 3.4125
      vertex 0.885154 -0.03125 3.2875
      vertex 0.875 0 3.4125
    endloop
  endfacet
  facet normal 0.951058 0.309012 -0
    outer loop
      vertex 0.898872 -0.073473 3.225
      vertex 0.885154 -0.03125 3.2875
      vertex 0.898872 -0.073473 3.4125
    endloop
  endfacet
  facet normal 0.951058 0.309012 0
    outer loop
      vertex 0.885154 -0.03125 3.2875
      vertex 0.898872 -0.073473 3.225
      vertex 0.885154 -0.03125 3.225
    endloop
  endfacet
  facet normal 0.58778 0.809021 -0
    outer loop
      vertex 0.961372 -0.118881 3.225
      vertex 0.898872 -0.073473 3.4125
      vertex 0.961372 -0.118881 3.4125
    endloop
  endfacet
  facet normal 0.58778 0.809021 0
    outer loop
      vertex 0.898872 -0.073473 3.4125
      vertex 0.961372 -0.118881 3.225
      vertex 0.898872 -0.073473 3.225
    endloop
  endfacet
  facet normal -0.58778 0.809021 0
    outer loop
      vertex 1.10113 -0.073473 3.225
      vertex 1.03863 -0.118881 3.4125
      vertex 1.10113 -0.073473 3.4125
    endloop
  endfacet
  facet normal -0.58778 0.809021 0
    outer loop
      vertex 1.03863 -0.118881 3.4125
      vertex 1.10113 -0.073473 3.225
      vertex 1.03863 -0.118881 3.225
    endloop
  endfacet
  facet normal -0.951055 0.309022 0
    outer loop
      vertex 1.11485 -0.03125 3.225
      vertex 1.10113 -0.073473 3.225
      vertex 1.11485 -0.03125 3.2875
    endloop
  endfacet
  facet normal -0.951054 0.309024 0
    outer loop
      vertex 1.11485 -0.03125 3.2875
      vertex 1.125 0 3.4125
      vertex 1.125 0 3.2875
    endloop
  endfacet
  facet normal -0.951055 0.309022 0
    outer loop
      vertex 1.10113 -0.073473 3.4125
      vertex 1.11485 -0.03125 3.2875
      vertex 1.10113 -0.073473 3.225
    endloop
  endfacet
  facet normal -0.951055 0.309023 3.85252e-07
    outer loop
      vertex 1.11485 -0.03125 3.2875
      vertex 1.10113 -0.073473 3.4125
      vertex 1.125 0 3.4125
    endloop
  endfacet
  facet normal 0 1 -0
    outer loop
      vertex 1.03863 -0.118881 3.225
      vertex 0.961372 -0.118881 3.4125
      vertex 1.03863 -0.118881 3.4125
    endloop
  endfacet
  facet normal 0 1 0
    outer loop
      vertex 0.961372 -0.118881 3.4125
      vertex 1.03863 -0.118881 3.225
      vertex 0.961372 -0.118881 3.225
    endloop
  endfacet
  facet normal -1 0 0
    outer loop
      vertex -1.86562 -0.984375 3.225
      vertex -1.86562 0.984375 3.4125
      vertex -1.86562 0.984375 3.225
    endloop
  endfacet
  facet normal -1 -0 0
    outer loop
      vertex -1.86562 0.984375 3.4125
      vertex -1.86562 -0.984375 3.225
      vertex -1.86562 -0.984375 3.4125
    endloop
  endfacet
  facet normal 1 -0 0
    outer loop
      vertex 1.86562 -0.984375 3.4125
      vertex 1.86562 0.984375 3.225
      vertex 1.86562 0.984375 3.4125
    endloop
  endfacet
  facet normal 1 0 0
    outer loop
      vertex 1.86562 0.984375 3.225
      vertex 1.86562 -0.984375 3.4125
      vertex 1.86562 -0.984375 3.225
    endloop
  endfacet
  facet normal 0 1 -0
    outer loop
      vertex 1.86562 0.984375 3.225
      vertex -1.86562 0.984375 3.4125
      vertex 1.86562 0.984375 3.4125
    endloop
  endfacet
  facet normal 0 1 0
    outer loop
      vertex -1.86562 0.984375 3.4125
      vertex 1.86562 0.984375 3.225
      vertex -1.86562 0.984375 3.225
    endloop
  endfacet
  facet normal 0 -1 0
    outer loop
      vertex -1.86562 -0.984375 3.225
      vertex 1.86562 -0.984375 3.4125
      vertex -1.86562 -0.984375 3.4125
    endloop
  endfacet
  facet normal 0 -1 -0
    outer loop
      vertex 1.86562 -0.984375 3.4125
      vertex -1.86562 -0.984375 3.225
      vertex 1.86562 -0.984375 3.225
    endloop
  endfacet
  facet normal 0 0 1
    outer loop
      vertex -0.885154 0.03125 3.2875
      vertex -0.885154 -0.03125 3.2875
      vertex -0.875 0 3.2875
    endloop
  endfacet
  facet normal -0 0 1
    outer loop
      vertex -1.11485 0.03125 3.2875
      vertex -0.885154 -0.03125 3.2875
      vertex -0.885154 0.03125 3.2875
    endloop
  endfacet
  facet normal 0 0 1
    outer loop
      vertex -1.11485 0.03125 3.2875
      vertex -1.11485 -0.03125 3.2875
      vertex -0.885154 -0.03125 3.2875
    endloop
  endfacet
  facet normal 0 -0 1
    outer loop
      vertex -1.11485 -0.03125 3.2875
      vertex -1.11485 0.03125 3.2875
      vertex -1.125 0 3.2875
    endloop
  endfacet
  facet normal 0 -1 0
    outer loop
      vertex -1.11485 -0.03125 3.225
      vertex -0.885154 -0.03125 3.2875
      vertex -1.11485 -0.03125 3.2875
    endloop
  endfacet
  facet normal 0 -1 -0
    outer loop
      vertex -0.885154 -0.03125 3.2875
      vertex -1.11485 -0.03125 3.225
      vertex -0.885154 -0.03125 3.225
    endloop
  endfacet
  facet normal 0 1 -0
    outer loop
      vertex -0.885154 0.03125 3.225
      vertex -1.11485 0.03125 3.2875
      vertex -0.885154 0.03125 3.2875
    endloop
  endfacet
  facet normal 0 1 0
    outer loop
      vertex -1.11485 0.03125 3.2875
      vertex -0.885154 0.03125 3.225
      vertex -1.11485 0.03125 3.225
    endloop
  endfacet
  facet normal 0 0 1
    outer loop
      vertex 0.114846 0.03125 3.2875
      vertex 0.114846 -0.03125 3.2875
      vertex 0.125 0 3.2875
    endloop
  endfacet
  facet normal -0 0 1
    outer loop
      vertex -0.114846 0.03125 3.2875
      vertex 0.114846 -0.03125 3.2875
      vertex 0.114846 0.03125 3.2875
    endloop
  endfacet
  facet normal 0 0 1
    outer loop
      vertex -0.114846 0.03125 3.2875
      vertex -0.114846 -0.03125 3.2875
      vertex 0.114846 -0.03125 3.2875
    endloop
  endfacet
  facet normal 0 -0 1
    outer loop
      vertex -0.114846 -0.03125 3.2875
      vertex -0.114846 0.03125 3.2875
      vertex -0.125 0 3.2875
    endloop
  endfacet
  facet normal 0 -1 0
    outer loop
      vertex -0.114846 -0.03125 3.225
      vertex 0.114846 -0.03125 3.2875
      vertex -0.114846 -0.03125 3.2875
    endloop
  endfacet
  facet normal 0 -1 -0
    outer loop
      vertex 0.114846 -0.03125 3.2875
      vertex -0.114846 -0.03125 3.225
      vertex 0.114846 -0.03125 3.225
    endloop
  endfacet
  facet normal 0 1 -0
    outer loop
      vertex 0.114846 0.03125 3.225
      vertex -0.114846 0.03125 3.2875
      vertex 0.114846 0.03125 3.2875
    endloop
  endfacet
  facet normal 0 1 0
    outer loop
      vertex -0.114846 0.03125 3.2875
      vertex 0.114846 0.03125 3.225
      vertex -0.114846 0.03125 3.225
    endloop
  endfacet
  facet normal 0 0 1
    outer loop
      vertex 1.11485 0.03125 3.2875
      vertex 1.11485 -0.03125 3.2875
      vertex 1.125 0 3.2875
    endloop
  endfacet
  facet normal -0 0 1
    outer loop
      vertex 0.885154 0.03125 3.2875
      vertex 1.11485 -0.03125 3.2875
      vertex 1.11485 0.03125 3.2875
    endloop
  endfacet
  facet normal 0 0 1
    outer loop
      vertex 0.885154 0.03125 3.2875
      vertex 0.885154 -0.03125 3.2875
      vertex 1.11485 -0.03125 3.2875
    endloop
  endfacet
  facet normal 0 -0 1
    outer loop
      vertex 0.885154 -0.03125 3.2875
      vertex 0.885154 0.03125 3.2875
      vertex 0.875 0 3.2875
    endloop
  endfacet
  facet normal 0 -1 0
    outer loop
      vertex 0.885154 -0.03125 3.225
      vertex 1.11485 -0.03125 3.2875
      vertex 0.885154 -0.03125 3.2875
    endloop
  endfacet
  facet normal 0 -1 -0
    outer loop
      vertex 1.11485 -0.03125 3.2875
      vertex 0.885154 -0.03125 3.225
      vertex 1.11485 -0.03125 3.225
    endloop
  endfacet
  facet normal 0 1 -0
    outer loop
      vertex 1.11485 0.03125 3.225
      vertex 0.885154 0.03125 3.2875
      vertex 1.11485 0.03125 3.2875
    endloop
  endfacet
  facet normal 0 1 0
    outer loop
      vertex 0.885154 0.03125 3.2875
      vertex 1.11485 0.03125 3.225
      vertex 0.885154 0.03125 3.225
    endloop
  endfacet
endsolid OpenSCAD_Model
